{"accessors" : [{"bufferView" : 0, "byteOffset" : 0, "componentType" : 5123, "count" : 588, "type" : "SCALAR", "max" : [213], "min" : [0]}, {"bufferView" : 1, "byteOffset" : 0, "componentType" : 5126, "count" : 214, "type" : "VEC3", "max" : [-0.300029993057251, 0, 0.10000000149011612], "min" : [-0.44999998807907104, -0.10000000149011612, 0.009999999776482582], "name" : "POSITION"}, {"bufferView" : 1, "byteOffset" : 12, "componentType" : 5126, "count" : 214, "type" : "VEC2", "max" : [4.712389945983887, 1.100000023841858], "min" : [-0.07000000029802322, 0.9099999666213989], "name" : "TEXCOORD_0"}, {"bufferView" : 1, "byteOffset" : 20, "componentType" : 5126, "count" : 214, "type" : "VEC3", "max" : [1.0000044107437134, 1.0000044107437134, 1.0000044107437134], "min" : [-1.0000044107437134, -1.0000044107437134, -1.0000044107437134], "name" : "NORMAL"}, {"bufferView" : 0, "byteOffset" : 1176, "componentType" : 5123, "count" : 588, "type" : "SCALAR", "max" : [213], "min" : [0]}, {"bufferView" : 2, "byteOffset" : 0, "componentType" : 5126, "count" : 214, "type" : "VEC3", "max" : [0.26996999979019165, 0, 0.10000000149011612], "min" : [0.11999999731779099, -0.10000000149011612, 0.009999999776482582], "name" : "POSITION"}, {"bufferView" : 2, "byteOffset" : 12, "componentType" : 5126, "count" : 214, "type" : "VEC2", "max" : [4.712389945983887, 1.100000023841858], "min" : [-0.07000000029802322, 0.9099999666213989], "name" : "TEXCOORD_0"}, {"bufferView" : 2, "byteOffset" : 20, "componentType" : 5126, "count" : 214, "type" : "VEC3", "max" : [1.0000044107437134, 1.0000044107437134, 1.0000044107437134], "min" : [-1.0000044107437134, -1.0000044107437134, -1.0000044107437134], "name" : "NORMAL"}, {"bufferView" : 0, "byteOffset" : 2352, "componentType" : 5123, "count" : 588, "type" : "SCALAR", "max" : [213], "min" : [0]}, {"bufferView" : 3, "byteOffset" : 0, "componentType" : 5126, "count" : 214, "type" : "VEC3", "max" : [-0.300029993057251, 0.3199999928474426, 0.10000000149011612], "min" : [-0.44999998807907104, 0.2199999988079071, 0.009999999776482582], "name" : "POSITION"}, {"bufferView" : 3, "byteOffset" : 12, "componentType" : 5126, "count" : 214, "type" : "VEC2", "max" : [4.712389945983887, 1.100000023841858], "min" : [-0.07000000029802322, 0.9099999666213989], "name" : "TEXCOORD_0"}, {"bufferView" : 3, "byteOffset" : 20, "componentType" : 5126, "count" : 214, "type" : "VEC3", "max" : [1.0000044107437134, 1.0000044107437134, 1.0000044107437134], "min" : [-1.0000044107437134, -1.0000044107437134, -1.0000044107437134], "name" : "NORMAL"}, {"bufferView" : 0, "byteOffset" : 3528, "componentType" : 5123, "count" : 588, "type" : "SCALAR", "max" : [213], "min" : [0]}, {"bufferView" : 4, "byteOffset" : 0, "componentType" : 5126, "count" : 214, "type" : "VEC3", "max" : [-0.030030500143766403, 0, 0.10000000149011612], "min" : [-0.18000000715255737, -0.10000000149011612, 0.009999999776482582], "name" : "POSITION"}, {"bufferView" : 4, "byteOffset" : 12, "componentType" : 5126, "count" : 214, "type" : "VEC2", "max" : [4.712389945983887, 1.100000023841858], "min" : [-0.07000000029802322, 0.9099999666213989], "name" : "TEXCOORD_0"}, {"bufferView" : 4, "byteOffset" : 20, "componentType" : 5126, "count" : 214, "type" : "VEC3", "max" : [1.0000044107437134, 1.0000044107437134, 1.0000044107437134], "min" : [-1.0000044107437134, -1.0000044107437134, -1.0000044107437134], "name" : "NORMAL"}, {"bufferView" : 0, "byteOffset" : 4704, "componentType" : 5123, "count" : 588, "type" : "SCALAR", "max" : [213], "min" : [0]}, {"bufferView" : 5, "byteOffset" : 0, "componentType" : 5126, "count" : 214, "type" : "VEC3", "max" : [-0.030030500143766403, 0.3199999928474426, 0.10000000149011612], "min" : [-0.18000000715255737, 0.2199999988079071, 0.009999999776482582], "name" : "POSITION"}, {"bufferView" : 5, "byteOffset" : 12, "componentType" : 5126, "count" : 214, "type" : "VEC2", "max" : [4.712389945983887, 1.100000023841858], "min" : [-0.07000000029802322, 0.9099999666213989], "name" : "TEXCOORD_0"}, {"bufferView" : 5, "byteOffset" : 20, "componentType" : 5126, "count" : 214, "type" : "VEC3", "max" : [1.0000044107437134, 1.0000044107437134, 1.0000044107437134], "min" : [-1.0000044107437134, -1.0000044107437134, -1.0000044107437134], "name" : "NORMAL"}, {"bufferView" : 0, "byteOffset" : 5880, "componentType" : 5123, "count" : 588, "type" : "SCALAR", "max" : [213], "min" : [0]}, {"bufferView" : 6, "byteOffset" : 0, "componentType" : 5126, "count" : 214, "type" : "VEC3", "max" : [0.26996999979019165, 0.3199999928474426, 0.10000000149011612], "min" : [0.11999999731779099, 0.2199999988079071, 0.009999999776482582], "name" : "POSITION"}, {"bufferView" : 6, "byteOffset" : 12, "componentType" : 5126, "count" : 214, "type" : "VEC2", "max" : [4.712389945983887, 1.100000023841858], "min" : [-0.07000000029802322, 0.9099999666213989], "name" : "TEXCOORD_0"}, {"bufferView" : 6, "byteOffset" : 20, "componentType" : 5126, "count" : 214, "type" : "VEC3", "max" : [1.0000044107437134, 1.0000044107437134, 1.0000044107437134], "min" : [-1.0000044107437134, -1.0000044107437134, -1.0000044107437134], "name" : "NORMAL"}, {"bufferView" : 0, "byteOffset" : 7056, "componentType" : 5123, "count" : 588, "type" : "SCALAR", "max" : [213], "min" : [0]}, {"bufferView" : 7, "byteOffset" : 0, "componentType" : 5126, "count" : 214, "type" : "VEC3", "max" : [-0.300029993057251, -0.3199999928474426, 0.10000000149011612], "min" : [-0.44999998807907104, -0.41999998688697815, 0.009999999776482582], "name" : "POSITION"}, {"bufferView" : 7, "byteOffset" : 12, "componentType" : 5126, "count" : 214, "type" : "VEC2", "max" : [4.712389945983887, 1.100000023841858], "min" : [-0.07000000029802322, 0.9099999666213989], "name" : "TEXCOORD_0"}, {"bufferView" : 7, "byteOffset" : 20, "componentType" : 5126, "count" : 214, "type" : "VEC3", "max" : [1.0000044107437134, 1.0000044107437134, 1.0000044107437134], "min" : [-1.0000044107437134, -1.0000044107437134, -1.0000044107437134], "name" : "NORMAL"}, {"bufferView" : 0, "byteOffset" : 8232, "componentType" : 5123, "count" : 588, "type" : "SCALAR", "max" : [213], "min" : [0]}, {"bufferView" : 8, "byteOffset" : 0, "componentType" : 5126, "count" : 214, "type" : "VEC3", "max" : [-0.030030500143766403, -0.3199999928474426, 0.10000000149011612], "min" : [-0.18000000715255737, -0.41999998688697815, 0.009999999776482582], "name" : "POSITION"}, {"bufferView" : 8, "byteOffset" : 12, "componentType" : 5126, "count" : 214, "type" : "VEC2", "max" : [4.712389945983887, 1.100000023841858], "min" : [-0.07000000029802322, 0.9099999666213989], "name" : "TEXCOORD_0"}, {"bufferView" : 8, "byteOffset" : 20, "componentType" : 5126, "count" : 214, "type" : "VEC3", "max" : [1.0000044107437134, 1.0000044107437134, 1.0000044107437134], "min" : [-1.0000044107437134, -1.0000044107437134, -1.0000044107437134], "name" : "NORMAL"}, {"bufferView" : 0, "byteOffset" : 9408, "componentType" : 5123, "count" : 588, "type" : "SCALAR", "max" : [213], "min" : [0]}, {"bufferView" : 9, "byteOffset" : 0, "componentType" : 5126, "count" : 214, "type" : "VEC3", "max" : [0.26996999979019165, -0.3199999928474426, 0.10000000149011612], "min" : [0.11999999731779099, -0.41999998688697815, 0.009999999776482582], "name" : "POSITION"}, {"bufferView" : 9, "byteOffset" : 12, "componentType" : 5126, "count" : 214, "type" : "VEC2", "max" : [4.712389945983887, 1.100000023841858], "min" : [-0.07000000029802322, 0.9099999666213989], "name" : "TEXCOORD_0"}, {"bufferView" : 9, "byteOffset" : 20, "componentType" : 5126, "count" : 214, "type" : "VEC3", "max" : [1.0000044107437134, 1.0000044107437134, 1.0000044107437134], "min" : [-1.0000044107437134, -1.0000044107437134, -1.0000044107437134], "name" : "NORMAL"}, {"bufferView" : 0, "byteOffset" : 10584, "componentType" : 5123, "count" : 36, "type" : "SCALAR", "max" : [23], "min" : [0]}, {"bufferView" : 10, "byteOffset" : 0, "componentType" : 5126, "count" : 24, "type" : "VEC3", "max" : [0.5, 0.5, 0.009999999776482582], "min" : [-0.5, -0.5, 0], "name" : "POSITION"}, {"bufferView" : 10, "byteOffset" : 12, "componentType" : 5126, "count" : 24, "type" : "VEC2", "max" : [0.5, 1.5], "min" : [-0.5, 0.5], "name" : "TEXCOORD_0"}, {"bufferView" : 10, "byteOffset" : 20, "componentType" : 5126, "count" : 24, "type" : "VEC3", "max" : [1.0000044107437134, 1.0000044107437134, 1.0000044107437134], "min" : [-1.0000044107437134, -1.0000044107437134, -1.0000044107437134], "name" : "NORMAL"}], "asset" : {"generator" : "Aspose.3D 24.2.0", "version" : "2.0"}, "buffers" : [{"uri" : "buffer.bin", "byteLength" : 73100}], "bufferViews" : [{"buffer" : 0, "byteOffset" : 0, "byteLength" : 10656, "target" : 34963}, {"buffer" : 0, "byteOffset" : 10660, "byteLength" : 6848, "byteStride" : 32, "target" : 34962}, {"buffer" : 0, "byteOffset" : 17512, "byteLength" : 6848, "byteStride" : 32, "target" : 34962}, {"buffer" : 0, "byteOffset" : 24364, "byteLength" : 6848, "byteStride" : 32, "target" : 34962}, {"buffer" : 0, "byteOffset" : 31216, "byteLength" : 6848, "byteStride" : 32, "target" : 34962}, {"buffer" : 0, "byteOffset" : 38068, "byteLength" : 6848, "byteStride" : 32, "target" : 34962}, {"buffer" : 0, "byteOffset" : 44920, "byteLength" : 6848, "byteStride" : 32, "target" : 34962}, {"buffer" : 0, "byteOffset" : 51772, "byteLength" : 6848, "byteStride" : 32, "target" : 34962}, {"buffer" : 0, "byteOffset" : 58624, "byteLength" : 6848, "byteStride" : 32, "target" : 34962}, {"buffer" : 0, "byteOffset" : 65476, "byteLength" : 6848, "byteStride" : 32, "target" : 34962}, {"buffer" : 0, "byteOffset" : 72328, "byteLength" : 768, "byteStride" : 32, "target" : 34962}], "meshes" : [{"primitives" : [{"attributes" : {"POSITION" : 1, "TEXCOORD_0" : 2, "NORMAL" : 3}, "indices" : 0, "mode" : 4}], "name" : ""}, {"primitives" : [{"attributes" : {"POSITION" : 5, "TEXCOORD_0" : 6, "NORMAL" : 7}, "indices" : 4, "mode" : 4}], "name" : ""}, {"primitives" : [{"attributes" : {"POSITION" : 9, "TEXCOORD_0" : 10, "NORMAL" : 11}, "indices" : 8, "mode" : 4}], "name" : ""}, {"primitives" : [{"attributes" : {"POSITION" : 13, "TEXCOORD_0" : 14, "NORMAL" : 15}, "indices" : 12, "mode" : 4}], "name" : ""}, {"primitives" : [{"attributes" : {"POSITION" : 17, "TEXCOORD_0" : 18, "NORMAL" : 19}, "indices" : 16, "mode" : 4}], "name" : ""}, {"primitives" : [{"attributes" : {"POSITION" : 21, "TEXCOORD_0" : 22, "NORMAL" : 23}, "indices" : 20, "mode" : 4}], "name" : ""}, {"primitives" : [{"attributes" : {"POSITION" : 25, "TEXCOORD_0" : 26, "NORMAL" : 27}, "indices" : 24, "mode" : 4}], "name" : ""}, {"primitives" : [{"attributes" : {"POSITION" : 29, "TEXCOORD_0" : 30, "NORMAL" : 31}, "indices" : 28, "mode" : 4}], "name" : ""}, {"primitives" : [{"attributes" : {"POSITION" : 33, "TEXCOORD_0" : 34, "NORMAL" : 35}, "indices" : 32, "mode" : 4}], "name" : ""}, {"primitives" : [{"attributes" : {"POSITION" : 37, "TEXCOORD_0" : 38, "NORMAL" : 39}, "indices" : 36, "mode" : 4}], "name" : ""}], "nodes" : [{"mesh" : 0, "name" : "Body_03"}, {"mesh" : 1, "name" : "Body_03_(2)"}, {"mesh" : 2, "name" : "Body_03_(1)"}, {"mesh" : 3, "name" : "Body_03_(1)_(2)"}, {"mesh" : 4, "name" : "Body_03_(2)_(2)"}, {"mesh" : 5, "name" : "Body_03_(3)"}, {"mesh" : 6, "name" : "Body_03_(1)_(3)"}, {"mesh" : 7, "name" : "Body_03_(2)_(3)"}, {"mesh" : 8, "name" : "Body_03_(3)_(2)"}, {"mesh" : 9, "name" : "Body_02"}], "scene" : 0, "scenes" : [{"nodes" : [0, 1, 2, 3, 4, 5, 6, 7, 8, 9]}]}