{
	"asset":{
		"generator":"Khronos glTF Blender I/O v4.1.63",
		"version":"2.0"
	},
	"scene":0,
	"scenes":[
		{
			"name":"Scene",
			"nodes":[
				0,
				1,
				2,
				3,
				4,
				5,
				6
			]
		}
	],
	"nodes":[
		{
			"mesh":0,
			"name":"Cube"
		},
		{
			"mesh":1,
			"name":"Sphere",
			"translation":[
				1.8520641326904297,
				1.486940622329712,
				-3.6806373596191406
			]
		},
		{
			"mesh":2,
			"name":"Sphere.001",
			"translation":[
				2.1655173301696777,
				1.303464651107788,
				4.017877578735352
			]
		},
		{
			"mesh":3,
			"name":"Cone",
			"translation":[
				-2.4101991653442383,
				1.200700044631958,
				-3.2143030166625977
			]
		},
		{
			"mesh":4,
			"name":"Cone.001",
			"translation":[
				6.056461811065674,
				1.1956841945648193,
				-1.8895494937896729
			]
		},
		{
			"mesh":5,
			"name":"Cube.001",
			"translation":[
				-3.074136734008789,
				0.8252766132354736,
				1.3731985092163086
			]
		},
		{
			"mesh":6,
			"name":"Cube.002",
			"translation":[
				4.569903373718262,
				0.7678623199462891,
				1.7090306282043457
			]
		}
	],
	"materials":[
		{
			"doubleSided":true,
			"name":"Material",
			"pbrMetallicRoughness":{
				"baseColorFactor":[
					0.800000011920929,
					0.800000011920929,
					0.800000011920929,
					1
				],
				"metallicFactor":0,
				"roughnessFactor":0.5
			}
		}
	],
	"meshes":[
		{
			"name":"Cube",
			"primitives":[
				{
					"attributes":{
						"POSITION":0,
						"NORMAL":1,
						"TEXCOORD_0":2
					},
					"indices":3,
					"material":0
				}
			]
		},
		{
			"name":"Sphere",
			"primitives":[
				{
					"attributes":{
						"POSITION":4,
						"NORMAL":5,
						"TEXCOORD_0":6
					},
					"indices":7
				}
			]
		},
		{
			"name":"Sphere.001",
			"primitives":[
				{
					"attributes":{
						"POSITION":8,
						"NORMAL":9,
						"TEXCOORD_0":10
					},
					"indices":7
				}
			]
		},
		{
			"name":"Cone",
			"primitives":[
				{
					"attributes":{
						"POSITION":11,
						"NORMAL":12,
						"TEXCOORD_0":13
					},
					"indices":14
				}
			]
		},
		{
			"name":"Cone.001",
			"primitives":[
				{
					"attributes":{
						"POSITION":15,
						"NORMAL":16,
						"TEXCOORD_0":17
					},
					"indices":14
				}
			]
		},
		{
			"name":"Cube.001",
			"primitives":[
				{
					"attributes":{
						"POSITION":18,
						"NORMAL":19,
						"TEXCOORD_0":20
					},
					"indices":21
				}
			]
		},
		{
			"name":"Cube.002",
			"primitives":[
				{
					"attributes":{
						"POSITION":22,
						"NORMAL":23,
						"TEXCOORD_0":24
					},
					"indices":21
				}
			]
		}
	],
	"accessors":[
		{
			"bufferView":0,
			"componentType":5126,
			"count":24,
			"max":[
				1,
				1,
				1
			],
			"min":[
				-1,
				-1,
				-1
			],
			"type":"VEC3"
		},
		{
			"bufferView":1,
			"componentType":5126,
			"count":24,
			"type":"VEC3"
		},
		{
			"bufferView":2,
			"componentType":5126,
			"count":24,
			"type":"VEC2"
		},
		{
			"bufferView":3,
			"componentType":5123,
			"count":36,
			"type":"SCALAR"
		},
		{
			"bufferView":4,
			"componentType":5126,
			"count":1984,
			"max":[
				1.3816639184951782,
				1.486940622329712,
				1.1624071598052979
			],
			"min":[
				-1.3816629648208618,
				-1.486940622329712,
				-1.1624078750610352
			],
			"type":"VEC3"
		},
		{
			"bufferView":5,
			"componentType":5126,
			"count":1984,
			"type":"VEC3"
		},
		{
			"bufferView":6,
			"componentType":5126,
			"count":1984,
			"type":"VEC2"
		},
		{
			"bufferView":7,
			"componentType":5123,
			"count":2880,
			"type":"SCALAR"
		},
		{
			"bufferView":8,
			"componentType":5126,
			"count":1984,
			"max":[
				1.20966637134552,
				1.303464651107788,
				1.0401991605758667
			],
			"min":[
				-1.2096655368804932,
				-1.303464651107788,
				-1.040199875831604
			],
			"type":"VEC3"
		},
		{
			"bufferView":9,
			"componentType":5126,
			"count":1984,
			"type":"VEC3"
		},
		{
			"bufferView":10,
			"componentType":5126,
			"count":1984,
			"type":"VEC2"
		},
		{
			"bufferView":11,
			"componentType":5126,
			"count":128,
			"max":[
				1.1839208602905273,
				1.200700044631958,
				0.80242919921875
			],
			"min":[
				-1.1839208602905273,
				-1.200700044631958,
				-0.80242919921875
			],
			"type":"VEC3"
		},
		{
			"bufferView":12,
			"componentType":5126,
			"count":128,
			"type":"VEC3"
		},
		{
			"bufferView":13,
			"componentType":5126,
			"count":128,
			"type":"VEC2"
		},
		{
			"bufferView":14,
			"componentType":5123,
			"count":186,
			"type":"SCALAR"
		},
		{
			"bufferView":15,
			"componentType":5126,
			"count":128,
			"max":[
				0.9043383598327637,
				1.1956841945648193,
				1.4639651775360107
			],
			"min":[
				-0.9043383598327637,
				-1.1956841945648193,
				-1.4639651775360107
			],
			"type":"VEC3"
		},
		{
			"bufferView":16,
			"componentType":5126,
			"count":128,
			"type":"VEC3"
		},
		{
			"bufferView":17,
			"componentType":5126,
			"count":128,
			"type":"VEC2"
		},
		{
			"bufferView":18,
			"componentType":5126,
			"count":24,
			"max":[
				1.0950050354003906,
				0.8252766132354736,
				0.7543935775756836
			],
			"min":[
				-1.0950050354003906,
				-0.8252766132354736,
				-0.7543935775756836
			],
			"type":"VEC3"
		},
		{
			"bufferView":19,
			"componentType":5126,
			"count":24,
			"type":"VEC3"
		},
		{
			"bufferView":20,
			"componentType":5126,
			"count":24,
			"type":"VEC2"
		},
		{
			"bufferView":21,
			"componentType":5123,
			"count":36,
			"type":"SCALAR"
		},
		{
			"bufferView":22,
			"componentType":5126,
			"count":24,
			"max":[
				0.9049167633056641,
				0.7678623199462891,
				1.0783967971801758
			],
			"min":[
				-0.9049167633056641,
				-0.7678623199462891,
				-1.0783967971801758
			],
			"type":"VEC3"
		},
		{
			"bufferView":23,
			"componentType":5126,
			"count":24,
			"type":"VEC3"
		},
		{
			"bufferView":24,
			"componentType":5126,
			"count":24,
			"type":"VEC2"
		}
	],
	"bufferViews":[
		{
			"buffer":0,
			"byteLength":288,
			"byteOffset":0,
			"target":34962
		},
		{
			"buffer":0,
			"byteLength":288,
			"byteOffset":288,
			"target":34962
		},
		{
			"buffer":0,
			"byteLength":192,
			"byteOffset":576,
			"target":34962
		},
		{
			"buffer":0,
			"byteLength":72,
			"byteOffset":768,
			"target":34963
		},
		{
			"buffer":0,
			"byteLength":23808,
			"byteOffset":840,
			"target":34962
		},
		{
			"buffer":0,
			"byteLength":23808,
			"byteOffset":24648,
			"target":34962
		},
		{
			"buffer":0,
			"byteLength":15872,
			"byteOffset":48456,
			"target":34962
		},
		{
			"buffer":0,
			"byteLength":5760,
			"byteOffset":64328,
			"target":34963
		},
		{
			"buffer":0,
			"byteLength":23808,
			"byteOffset":70088,
			"target":34962
		},
		{
			"buffer":0,
			"byteLength":23808,
			"byteOffset":93896,
			"target":34962
		},
		{
			"buffer":0,
			"byteLength":15872,
			"byteOffset":117704,
			"target":34962
		},
		{
			"buffer":0,
			"byteLength":1536,
			"byteOffset":133576,
			"target":34962
		},
		{
			"buffer":0,
			"byteLength":1536,
			"byteOffset":135112,
			"target":34962
		},
		{
			"buffer":0,
			"byteLength":1024,
			"byteOffset":136648,
			"target":34962
		},
		{
			"buffer":0,
			"byteLength":372,
			"byteOffset":137672,
			"target":34963
		},
		{
			"buffer":0,
			"byteLength":1536,
			"byteOffset":138044,
			"target":34962
		},
		{
			"buffer":0,
			"byteLength":1536,
			"byteOffset":139580,
			"target":34962
		},
		{
			"buffer":0,
			"byteLength":1024,
			"byteOffset":141116,
			"target":34962
		},
		{
			"buffer":0,
			"byteLength":288,
			"byteOffset":142140,
			"target":34962
		},
		{
			"buffer":0,
			"byteLength":288,
			"byteOffset":142428,
			"target":34962
		},
		{
			"buffer":0,
			"byteLength":192,
			"byteOffset":142716,
			"target":34962
		},
		{
			"buffer":0,
			"byteLength":72,
			"byteOffset":142908,
			"target":34963
		},
		{
			"buffer":0,
			"byteLength":288,
			"byteOffset":142980,
			"target":34962
		},
		{
			"buffer":0,
			"byteLength":288,
			"byteOffset":143268,
			"target":34962
		},
		{
			"buffer":0,
			"byteLength":192,
			"byteOffset":143556,
			"target":34962
		}
	],
	"buffers":[
		{
			"byteLength":143748,
			"uri":"untitled2.bin"
		}
	]
}
